P2
# Created by Bryan Witkowski 5/30/02
24 24
255
0     0     0     0     0     0     0     0     0     0     0     0     0     0     0     0     0     0     0     0     0     0     0     0     
0     0     0     0     0     0     0     0     0     0     0     0     0     0     0     0     0     0     0     0     0     0     0     0     
0     0     0     0     0     0     0     0     0     0     0     0     0     0     0     0     0     0     0     0     0     0     0     0     
0     0     0     0     0     0     0     0     0     0     0     0     0     0     0     0     0     0     0     0     0     0     0     0     
0     0     0     0     0     0     0     0     0     0     0     0     0     0     0     0     0     0     0     0     0     0     0     0     
0     0     0     0     0     0     0     0     0     0     0     0     0     0     0     0     0     0     0     0     0     0     0     0     
0     0     0     0     0     0     255 255 255 255 255 255 255 255 255 255 255 255 0     0     0     0     0     0     
0     0     0     0     0     0     255 255 255 255 255 255 255 255 255 255 255 255 0     0     0     0     0     0     
0     0     0     0     0     0     255 255 255 255 255 255 255 255 255 255 255 255 0     0     0     0     0     0     
0     0     0     0     0     0     255 255 255 255 255 255 255 255 255 255 255 255 0     0     0     0     0     0     
0     0     0     0     0     0     255 255 255 255 255 255 255 255 255 255 255 255 0     0     0     0     0     0     
0     0     0     0     0     0     255 255 255 255 255 255 255 255 255 255 255 255 0     0     0     0     0     0     
0     0     0     0     0     0     255 255 255 0     0     0     255 255 255 255 255 255 0     0     0     0     0     0     
0     0     0     0     0     0     255 255 255 0     0     0     255 255 255 255 255 255 0     0     0     0     0     0     
0     0     0     0     0     0     255 255 255 0     0     0     255 255 255 255 255 255 0     0     0     0     0     0     
0     0     0     0     0     0     255 255 255 0     0     0     0     0     0     0     0     0     0     0     0     0     0     0     
0     0     0     0     0     0     255 255 255 0     0     0     0     0     0     0     0     0     0     0     0     0     0     0     
0     0     0     0     0     0     255 255 255 0     0     0     0     0     0     0     0     0     0     0     0     0     0     0     
0     0     0     0     0     0     0     0     0     0     0     0     0     0     0     0     0     0     0     0     0     0     0     0     
0     0     0     0     0     0     0     0     0     0     0     0     0     0     0     0     0     0     0     0     0     0     0     0     
0     0     0     0     0     0     0     0     0     0     0     0     0     0     0     0     0     0     0     0     0     0     0     0     
0     0     0     0     0     0     0     0     0     0     0     0     0     0     0     0     0     0     0     0     0     0     0     0     
0     0     0     0     0     0     0     0     0     0     0     0     0     0     0     0     0     0     0     0     0     0     0     0     
0     0     0     0     0     0     0     0     0     0     0     0     0     0     0     0     0     0     0     0     0     0     0     0     
